<mxfile modified="2023-08-11T19:43:17.797Z" host="app.diagrams.net" agent="Mozilla/5.0 (X11; Linux x86_64; rv:109.0) Gecko/20100101 Firefox/115.0" etag="oJkytFcA-NyH8S6v4K5a" version="21.6.8" type="github">
  <diagram id="f106602c-feb2-e66a-4537-3a34d633f6aa" name="Page-1">
    <mxGraphModel dx="4324" dy="480" grid="1" gridSize="10" guides="1" tooltips="1" connect="1" arrows="1" fold="1" page="1" pageScale="1" pageWidth="3300" pageHeight="2339" background="#ffffff" math="0" shadow="1">
      <root>
        <mxCell id="0" />
        <mxCell id="1" parent="0" />
        <mxCell id="2" value="&lt;font color=&quot;#ffffff&quot;&gt;Architecture: Automated CRM Workflow &amp;gt; Google Apps &amp;amp; Monday.com CRM&lt;/font&gt;" style="fillColor=#0050ef;strokeColor=#001DBC;shadow=1;fontSize=14;align=left;spacingLeft=50;html=1;fontColor=#ffffff;" parent="1" vertex="1">
          <mxGeometry x="230" y="40" width="570" height="40" as="geometry" />
        </mxCell>
        <mxCell id="jaFNCjxHBDIDp4KI0RfO-726" style="edgeStyle=orthogonalEdgeStyle;rounded=0;orthogonalLoop=1;jettySize=auto;html=1;strokeWidth=2;fillColor=#1ba1e2;strokeColor=#006EAF;" parent="1" source="jaFNCjxHBDIDp4KI0RfO-719" edge="1">
          <mxGeometry relative="1" as="geometry">
            <mxPoint x="740" y="410" as="targetPoint" />
          </mxGeometry>
        </mxCell>
        <mxCell id="jaFNCjxHBDIDp4KI0RfO-735" style="edgeStyle=orthogonalEdgeStyle;rounded=0;orthogonalLoop=1;jettySize=auto;html=1;entryX=1;entryY=0.5;entryDx=0;entryDy=0;entryPerimeter=0;strokeWidth=4;" parent="1" source="jaFNCjxHBDIDp4KI0RfO-719" target="jaFNCjxHBDIDp4KI0RfO-730" edge="1">
          <mxGeometry relative="1" as="geometry">
            <Array as="points">
              <mxPoint x="740" y="1020" />
            </Array>
          </mxGeometry>
        </mxCell>
        <mxCell id="jaFNCjxHBDIDp4KI0RfO-743" style="edgeStyle=orthogonalEdgeStyle;rounded=0;orthogonalLoop=1;jettySize=auto;html=1;entryX=1;entryY=0.5;entryDx=0;entryDy=0;strokeWidth=3;fillColor=#1ba1e2;strokeColor=#006EAF;" parent="1" source="jaFNCjxHBDIDp4KI0RfO-719" target="jaFNCjxHBDIDp4KI0RfO-739" edge="1">
          <mxGeometry relative="1" as="geometry" />
        </mxCell>
        <mxCell id="jaFNCjxHBDIDp4KI0RfO-719" value="Monday.com CRM" style="rounded=1;absoluteArcSize=1;arcSize=2;html=1;strokeColor=none;gradientColor=none;shadow=0;dashed=0;strokeColor=none;fontSize=12;fontColor=#9E9E9E;align=left;verticalAlign=top;spacing=10;spacingTop=-4;fillColor=#F1F8E9;" parent="1" vertex="1">
          <mxGeometry x="680" y="600" width="120" height="110" as="geometry" />
        </mxCell>
        <mxCell id="jaFNCjxHBDIDp4KI0RfO-720" value="" style="strokeColor=#dddddd;fillColor=#ffffff;shadow=1;strokeWidth=1;rounded=1;absoluteArcSize=1;arcSize=2;labelPosition=center;verticalLabelPosition=middle;align=center;verticalAlign=bottom;spacingLeft=0;fontColor=#999999;fontSize=12;whiteSpace=wrap;spacingBottom=2;html=1;" parent="1" vertex="1">
          <mxGeometry x="710" y="626.5" width="60" height="67" as="geometry" />
        </mxCell>
        <mxCell id="jaFNCjxHBDIDp4KI0RfO-721" value="" style="dashed=0;connectable=0;html=1;fillColor=#757575;strokeColor=none;shape=mxgraph.gcp2.list;part=1;" parent="jaFNCjxHBDIDp4KI0RfO-720" vertex="1">
          <mxGeometry x="0.5" width="44.5" height="50" relative="1" as="geometry">
            <mxPoint x="-22.25" y="10" as="offset" />
          </mxGeometry>
        </mxCell>
        <mxCell id="jaFNCjxHBDIDp4KI0RfO-728" style="edgeStyle=orthogonalEdgeStyle;rounded=0;orthogonalLoop=1;jettySize=auto;html=1;entryX=0.5;entryY=1;entryDx=0;entryDy=0;strokeWidth=3;fillColor=#1ba1e2;strokeColor=#006EAF;" parent="1" source="jaFNCjxHBDIDp4KI0RfO-723" edge="1">
          <mxGeometry relative="1" as="geometry">
            <mxPoint x="310" y="520" as="targetPoint" />
          </mxGeometry>
        </mxCell>
        <mxCell id="jaFNCjxHBDIDp4KI0RfO-723" value="Google Apps" style="swimlane;childLayout=stackLayout;horizontal=1;startSize=50;horizontalStack=0;rounded=1;fontSize=14;fontStyle=0;strokeWidth=2;resizeParent=0;resizeLast=1;shadow=0;dashed=0;align=center;arcSize=4;whiteSpace=wrap;html=1;fillColor=#d5e8d4;strokeColor=#82b366;" parent="1" vertex="1">
          <mxGeometry x="240" y="600" width="160" height="120" as="geometry" />
        </mxCell>
        <mxCell id="jaFNCjxHBDIDp4KI0RfO-724" value="&lt;div&gt;+Sheets&lt;/div&gt;&lt;div&gt;+Meets&lt;/div&gt;&lt;div&gt;+Gmail&lt;/div&gt;&lt;div&gt;+Calendar&lt;/div&gt;&lt;div&gt;&lt;br&gt;&lt;/div&gt;" style="align=left;strokeColor=#6c8ebf;fillColor=#dae8fc;spacingLeft=4;fontSize=12;verticalAlign=top;resizable=0;rotatable=0;part=1;html=1;" parent="jaFNCjxHBDIDp4KI0RfO-723" vertex="1">
          <mxGeometry y="50" width="160" height="70" as="geometry" />
        </mxCell>
        <mxCell id="jaFNCjxHBDIDp4KI0RfO-733" style="edgeStyle=orthogonalEdgeStyle;rounded=0;orthogonalLoop=1;jettySize=auto;html=1;entryX=0.5;entryY=1;entryDx=0;entryDy=0;strokeWidth=3;fillColor=#1ba1e2;strokeColor=#006EAF;" parent="1" source="jaFNCjxHBDIDp4KI0RfO-730" target="jaFNCjxHBDIDp4KI0RfO-719" edge="1">
          <mxGeometry relative="1" as="geometry">
            <Array as="points">
              <mxPoint x="740" y="1020" />
            </Array>
          </mxGeometry>
        </mxCell>
        <mxCell id="jaFNCjxHBDIDp4KI0RfO-738" style="edgeStyle=orthogonalEdgeStyle;rounded=0;orthogonalLoop=1;jettySize=auto;html=1;entryX=0.5;entryY=1;entryDx=0;entryDy=0;strokeWidth=3;" parent="1" source="jaFNCjxHBDIDp4KI0RfO-730" target="jaFNCjxHBDIDp4KI0RfO-724" edge="1">
          <mxGeometry relative="1" as="geometry" />
        </mxCell>
        <mxCell id="jaFNCjxHBDIDp4KI0RfO-730" value="" style="verticalLabelPosition=bottom;verticalAlign=top;html=1;shape=mxgraph.basic.patternFillRect;fillStyle=diagGrid;step=5;fillStrokeWidth=0.2;fillStrokeColor=#dddddd;" parent="1" vertex="1">
          <mxGeometry x="410" y="920" width="280" height="200" as="geometry" />
        </mxCell>
        <mxCell id="jaFNCjxHBDIDp4KI0RfO-736" style="edgeStyle=orthogonalEdgeStyle;rounded=0;orthogonalLoop=1;jettySize=auto;html=1;entryX=0;entryY=0.5;entryDx=0;entryDy=0;entryPerimeter=0;strokeWidth=3;fillColor=#1ba1e2;strokeColor=#006EAF;" parent="1" source="jaFNCjxHBDIDp4KI0RfO-724" target="jaFNCjxHBDIDp4KI0RfO-730" edge="1">
          <mxGeometry relative="1" as="geometry">
            <Array as="points">
              <mxPoint x="320" y="1020" />
            </Array>
          </mxGeometry>
        </mxCell>
        <mxCell id="jaFNCjxHBDIDp4KI0RfO-740" style="edgeStyle=orthogonalEdgeStyle;rounded=0;orthogonalLoop=1;jettySize=auto;html=1;entryX=0.5;entryY=1;entryDx=0;entryDy=0;strokeWidth=3;" parent="1" source="jaFNCjxHBDIDp4KI0RfO-737" target="jaFNCjxHBDIDp4KI0RfO-739" edge="1">
          <mxGeometry relative="1" as="geometry" />
        </mxCell>
        <mxCell id="jaFNCjxHBDIDp4KI0RfO-737" value="&lt;h1&gt;AutoCRM-API&lt;/h1&gt;&lt;p&gt;+ Listen() to changes on Monday.com CRM&lt;/p&gt;&lt;p&gt;+ Links &#39;owner&#39; and &#39;lead&#39; progress-sheets&lt;/p&gt;&lt;p&gt;+ Updates g-calendar, g-meets &amp;amp; g-sheets&lt;/p&gt;&lt;p&gt;+ Collects relevant data from google apps.&lt;/p&gt;&lt;div&gt;+ Updates Monday.com CRM database&lt;br&gt;&lt;/div&gt;&lt;div&gt;&lt;br&gt;&lt;/div&gt;&lt;div&gt;&lt;br&gt;&lt;/div&gt;" style="text;html=1;strokeColor=none;fillColor=none;spacing=5;spacingTop=-20;whiteSpace=wrap;overflow=hidden;rounded=0;" parent="1" vertex="1">
          <mxGeometry x="430" y="920" width="250" height="190" as="geometry" />
        </mxCell>
        <mxCell id="jaFNCjxHBDIDp4KI0RfO-741" style="edgeStyle=orthogonalEdgeStyle;rounded=0;orthogonalLoop=1;jettySize=auto;html=1;entryX=0;entryY=0.5;entryDx=0;entryDy=0;strokeWidth=3;fillColor=#1ba1e2;strokeColor=#006EAF;" parent="1" source="jaFNCjxHBDIDp4KI0RfO-739" target="jaFNCjxHBDIDp4KI0RfO-719" edge="1">
          <mxGeometry relative="1" as="geometry" />
        </mxCell>
        <mxCell id="jaFNCjxHBDIDp4KI0RfO-744" style="edgeStyle=orthogonalEdgeStyle;rounded=0;orthogonalLoop=1;jettySize=auto;html=1;entryX=0.5;entryY=0;entryDx=0;entryDy=0;strokeWidth=3;fillColor=#1ba1e2;strokeColor=#006EAF;" parent="1" source="jaFNCjxHBDIDp4KI0RfO-739" target="jaFNCjxHBDIDp4KI0RfO-737" edge="1">
          <mxGeometry relative="1" as="geometry" />
        </mxCell>
        <mxCell id="jaFNCjxHBDIDp4KI0RfO-739" value="" style="shape=datastore;whiteSpace=wrap;html=1;" parent="1" vertex="1">
          <mxGeometry x="495" y="595" width="120" height="120" as="geometry" />
        </mxCell>
        <mxCell id="8QtS0giNclpuASFGhLsA-719" value="Current System Analysis" style="swimlane;startSize=70;fontSize=18;fillColor=#e1d5e7;strokeColor=#9673a6;" vertex="1" parent="1">
          <mxGeometry x="-1400" y="240" width="1200" height="960" as="geometry" />
        </mxCell>
        <UserObject label="&lt;font style=&quot;font-size: 30px;&quot;&gt;ChickPea&lt;/font&gt;" treeRoot="1" id="8QtS0giNclpuASFGhLsA-720">
          <mxCell style="whiteSpace=wrap;html=1;align=center;treeFolding=1;treeMoving=1;newEdgeStyle={&quot;edgeStyle&quot;:&quot;elbowEdgeStyle&quot;,&quot;startArrow&quot;:&quot;none&quot;,&quot;endArrow&quot;:&quot;none&quot;};fillColor=#dae8fc;strokeColor=#6c8ebf;" vertex="1" parent="8QtS0giNclpuASFGhLsA-719">
            <mxGeometry x="40" y="120" width="160" height="80" as="geometry" />
          </mxCell>
        </UserObject>
      </root>
    </mxGraphModel>
  </diagram>
</mxfile>
